<svg width="28" height="30" viewBox="0 0 28 30" fill="none" xmlns="http://www.w3.org/2000/svg">
<path d="M18.875 22.7778H27L24.7169 20.5922C24.4103 20.2987 24.1671 19.9502 24.0012 19.5666C23.8353 19.1831 23.75 18.772 23.75 18.3569V13.4444C23.7503 11.5139 23.1253 9.63075 21.9613 8.05427C20.7972 6.47779 19.1513 5.2855 17.25 4.64156V4.11111C17.25 3.28599 16.9076 2.49467 16.2981 1.91122C15.6886 1.32778 14.862 1 14 1C13.1381 1 12.3114 1.32778 11.7019 1.91122C11.0924 2.49467 10.75 3.28599 10.75 4.11111V4.64156C6.96378 5.92333 4.25003 9.38133 4.25003 13.4444V18.3584C4.25003 19.1953 3.90228 19.9996 3.28316 20.5922L1.00003 22.7778H9.12503M18.875 22.7778V24.3333C18.875 25.571 18.3614 26.758 17.4472 27.6332C16.5329 28.5083 15.293 29 14 29C12.7071 29 11.4671 28.5083 10.5529 27.6332C9.63864 26.758 9.12503 25.571 9.12503 24.3333V22.7778M18.875 22.7778H9.12503" stroke="black" stroke-width="2" stroke-linecap="round" stroke-linejoin="round"/>
</svg>
