<svg width="28" height="28" viewBox="0 0 28 28" fill="none" xmlns="http://www.w3.org/2000/svg">
<path d="M28 1.44903C28 0.948192 27.7648 0.483555 27.382 0.218049C26.9992 -0.0474574 26.5125 -0.0715943 26.1078 0.151673L19.2773 3.86876L9.84375 0.326666C9.09453 0.0430564 8.27422 0.0973642 7.55234 0.465453L0.754688 4.00152C0.295313 4.23685 0 4.74976 0 5.31095V26.5515C0 27.0463 0.229687 27.5109 0.607031 27.7764C0.984375 28.0419 1.46016 28.0721 1.87031 27.8609L8.83203 24.2464L18.1672 27.6799C18.9164 27.9574 19.7258 27.9031 20.4422 27.529L27.2453 23.999C27.7047 23.7576 28 23.2507 28 22.6895V1.44903ZM7.875 3.50671V21.5491L2.625 24.2766V6.23418L7.875 3.50671ZM10.5 21.8085V3.63946L17.5 6.26436V24.3852L10.5 21.8085ZM20.125 6.63848L25.375 3.77825V21.7723L20.125 24.4998V6.63848Z" fill="black"/>
</svg>
